<svg xmlns="http://www.w3.org/2000/svg" fill="#fff" xmlns:xlink="http://www.w3.org/1999/xlink" version="1.1" id="Слой_1" x="0px" y="0px" style="enable-background:new 0 0 500 500;" xml:space="preserve" viewBox="121 41.25 259 372.26">
<style type="text/css">

</style>
	<path class="st0" d="M249.52,153.08C248.49,155.8,249.45,384,250.5,384c1.36,0,1.89-230.01,0.54-231.36  C250.41,152.01,249.88,152.17,249.52,153.08"/>
	<path class="st1" d="M243.7,53.26c-5.24,2.84-0.99,7.45,6.79,7.56c8.54,0.13,12.33-4.85,5.84-7.88  C252.64,51.03,247.27,51.32,243.7,53.26z"/>
	<path class="st2" d="M207.83,177.04c-1.28,1.67-3.45,4.48-4.83,6.25s-3.55,4.7-4.82,6.52l-2.32,3.31l2.32,10.19  c2.21,9.68,0.25,12.06,0.25,47.19s-0.83,38.4-3.04,48.08l-1.9,11.79l3.68,6.08c1.28,1.82,3.7,4.44,5.07,6.21  c1.38,1.77,4.77,3.26,6.05,4.93c1.28,1.67,4.51,0.41,5.57,0.41c2.31,0,0.51-0.71-1.4-6.12c-2.43-6.88-3.95-34.36-3.95-71.38  s1.52-64.49,3.95-71.38c1.91-5.41,1.93-5.12-0.38-5.12C211.02,174,209.1,175.37,207.83,177.04 M286.46,174.39  c0,0.21,0.64,3.23,1.49,5.64c2.1,7,4.01,33.79,3.96,70.47c-0.05,36.98-2.32,63.63-4.06,71.21c-4.26,5.1-1.94,8.11,2,6  c0.93-0.5,2.9-1.57,4.18-3.24c1.28-1.67,3.28-4.51,4.66-6.27c1.38-1.77,3.51-4.66,4.79-6.48l2.39-3.1l-2.45-10.86  c-1.64-9.64-2.18-12.03-2.3-47.25c-0.12-34.59,0.57-36.35,2.51-46.23l1.98-10.91l-2.36-3.92c-1.28-1.82-3.09-4.92-4.47-6.69  s-3.89-5.05-5.17-6.72s-3.7-2.6-4.75-2.6C287.81,173.44,286.46,174.18,286.46,174.39 M209.13,249.5l-0.86,5.44l12.26,0.16  l10.81-0.16v-5.26l-0.6-5.26H220.5h-10.8L209.13,249.5 M269.79,249.5v5.35l10.96,0.57l10.73,0.38l-0.21-6.12l-0.27-5.61h-10.88  l-10.33,0.25l1.21,5.17"/>
	<g id="XMLID_1_">
	<g>
		<path class="st3" d="M378,130.4c0,3.77-0.88,4.66-14,14.17c-4.12,2.99-8.54,5.72-9.8,6.06c-1.27,0.33-8.92-0.63-17-2.15    c-12.49-2.34-19.2-2.92-44.7-3.83c-37.39-1.34-46.61-1.34-84,0c-25.5,0.91-32.21,1.49-44.7,3.83c-8.08,1.52-15.73,2.48-17,2.15    c-1.26-0.34-5.68-3.07-9.8-6.06c-13.12-9.51-14-10.4-14-14.17c0-3.78,1.51-4.3,6.68-2.33c3.77,1.44,22.95,3.56,43.97,4.87    c8.89,0.55,31.73,0.88,57.35,0.99c6.31,0.03,12.79,0.04,19.28,0.04c32.94,0,65.94-0.34,77.07-1.03    c21.02-1.31,40.2-3.43,43.97-4.87C376.49,126.1,378,126.62,378,130.4z M373.75,135.47c2.02-1.66,3.25-3.57,3.25-5.07    c0-2.69-0.64-2.87-4.68-1.33c-3.77,1.44-22.95,3.56-43.97,4.87c-22.22,1.37-133.48,1.37-155.7,0c-21.02-1.31-40.2-3.43-43.97-4.87    c-4.04-1.54-4.68-1.36-4.68,1.33c0,1.5,1.23,3.41,3.25,5.07c6.87,5.63,18.35,13.57,20.45,14.13c1.21,0.33,8.19-0.61,15.5-2.08    c11.36-2.28,17.75-2.84,43.8-3.82c16.77-0.63,36.35-1.15,43.5-1.15s26.73,0.52,43.5,1.15c26.05,0.98,32.44,1.54,43.8,3.82    c7.31,1.47,14.29,2.41,15.5,2.08C355.4,149.04,366.88,141.1,373.75,135.47z"/>
		<path class="st4" d="M303.93,188.96l2.44,3.45l-1.78,8.55c-2.9,13.94-3.09,17.07-3.09,51.54c0,31.11,0.14,33.66,2.43,44.55    l2.43,11.54l-2.43,3.46c-1.34,1.9-3.55,4.9-4.93,6.66c-1.38,1.77-3.55,4.58-4.83,6.25c-1.65,2.16-3.17,3.04-5.25,3.04    c-3.38,0-3.56-0.92-1.38-7.12c2.41-6.83,3.95-34.26,3.95-70.38s-1.54-63.55-3.95-70.38c-0.84-2.4-1.54-4.99-1.54-5.75    c0-0.85,1.11-1.37,2.92-1.37c2.08,0,3.6,0.88,5.25,3.04c1.28,1.67,3.45,4.48,4.83,6.25C300.38,184.05,302.6,187.06,303.93,188.96z     M305.15,193.12l-2.32-3.31c-1.28-1.82-3.45-4.76-4.83-6.52c-1.38-1.77-3.55-4.58-4.83-6.25s-3.19-3.04-4.25-3.04    c-1.05,0-1.92,0.17-1.92,0.37c0,0.21,0.7,2.35,1.54,4.75c2.43,6.89,3.95,34.36,3.95,71.38s-1.52,64.49-3.95,71.38    c-1.9,5.41-1.93,5.12,0.38,5.12c1.06,0,2.97-1.37,4.25-3.04s3.45-4.48,4.83-6.25c1.38-1.76,3.55-4.7,4.83-6.52l2.32-3.31    l-2.32-10.19c-2.21-9.68-2.33-12.06-2.33-47.19s0.12-37.51,2.33-47.19L305.15,193.12z"/>
		<polygon class="st4" points="291,249.5 291,254 280.75,253.79 270.5,253.58 280.25,253.25 290,252.93 290,249.5 290,246.07     280.25,245.75 270.5,245.42 280.75,245.21 291,245   "/>
		<path class="st3" d="M270,104.75V133h-3.5H263v-3.01v-24.3V78.37l-2.75-2.48c-4.26-3.85-8.99-5.09-13.49-3.54    c-2.06,0.71-4.87,2.35-6.25,3.64L238,78.35v27.32V133h-3.5H231v-28.25c0.01-26.21,0.15-28.48,1.95-31.44    c1.07-1.75,2.87-3.68,4-4.28c2.58-1.38,2.62-2.72,0.1-3.51c-2.53-0.81-6.05-6.53-6.05-9.85c0-3.91,5.33-9.35,10.82-11.03    c6.28-1.92,10.33-1.94,16.72-0.09C264.7,46.34,270,51.48,270,55.67c0,3.32-3.52,9.04-6.05,9.85c-2.52,0.79-2.48,2.13,0.1,3.51    c1.13,0.6,2.93,2.53,4,4.28C269.85,76.27,269.99,78.54,270,104.75z M269,132v-27.05c0-29.65-0.2-30.82-5.98-34.94    c-3.68-2.62-3.78-3.71-0.5-5.2c2.72-1.24,6.48-6.54,6.48-9.14c0-3.27-5.94-8.51-11.46-10.12c-6.32-1.83-8.48-1.82-14.72,0.09    C237.96,47.13,232,52.65,232,55.67c0,2.6,3.76,7.9,6.48,9.14c3.28,1.49,3.18,2.58-0.49,5.2c-5.79,4.12-5.99,5.29-5.99,34.94V132    h2.5h2.5v-27.31V77.37l2.75-2.51c1.51-1.38,4.6-3.09,6.86-3.8c4.93-1.54,10.23-0.16,14.64,3.83l2.75,2.48v27.32V132h2.5H269z"/>
		<path class="st3" d="M262.82,54.28c3.25,3.93-3.52,8.72-12.32,8.72c-6.15,0-10.84-1.9-12.54-5.07c-1.41-2.65,0.12-4.6,5.54-7.07    c2.2-1,5.35-1.82,7-1.82C254,49.04,260.92,51.98,262.82,54.28z M250.5,61.99c5.86,0,11.82-3.04,11.32-5.77    c-0.36-1.94-8.15-6.22-11.32-6.22c-1.14,0-4.08,1.01-6.54,2.25c-2.45,1.24-4.6,3.02-4.78,3.97    C238.68,58.95,244.64,61.99,250.5,61.99z"/>
		<polygon class="st5" points="260.13,107 259.81,110.1 259.5,113.19 250.5,113.19 241.5,113.19 241.19,110.1 240.87,107 250.5,107       "/>
		<path class="st5" d="M262.48,129.99c0,1.86-3.37,3.42-12.2,3.42c-8.84,0-11.04-1.55-11.04-3.41s2.22-3.43,11.05-3.43    C258.95,126.57,262.48,128.13,262.48,129.99z"/>
		<path class="st5" d="M250.5,75c4.29,0,9.94,3.17,9.27,5.2c-0.19,0.54-4.31,0.98-9.27,0.98s-9.09-0.44-9.27-0.98    c-0.18-0.54,0.88-1.93,2.36-3.09C245.36,75.72,247.71,75,250.5,75z"/>
		<path class="st5" d="M259.5,120.89v3.38l-9,0.01c-8.53,0-9.02-0.11-9.33-2.21c-0.18-1.22-0.07-2.88,0.23-3.68    c0.45-1.17,2.36-1.41,9.33-1.18l8.77,0.29V120.89z"/>
		<path class="st5" d="M259.5,99.34v2.84h-9c-7.57,0.01-9.05-0.26-9.34-1.64c-0.18-0.91-0.07-2.32,0.24-3.14    c0.45-1.18,2.33-1.42,9.33-1.19l8.77,0.29V99.34z"/>
		<path class="st5" d="M259.5,88.84v3.34l-9,0.01c-8.47,0-9.02-0.13-9.33-2.17c-0.18-1.19-0.07-2.83,0.23-3.63    c0.45-1.17,2.36-1.41,9.33-1.18l8.77,0.29V88.84z"/>
		<ellipse class="st6" cx="252.25" cy="268.5" rx="0.75" ry="116.5"/>
		<polygon class="st4" points="230.5,245.42 220.75,245.75 211,246.07 211,249.5 211,252.93 220.75,253.25 230.5,253.58     220.25,253.79 210,254 210,249.5 210,245 220.25,245.21   "/>
		<path class="st4" d="M212.33,327.95c2.2,0,3.05-0.39,2.77-2.35c0.66,2.11,0.39,2.4-1.25,2.4c-1.06,0-5.02,0.67-6.3-1    s-3.82-3.2-5.2-4.97c-1.37-1.77-3.92-4.64-5.2-6.46l-3.92-5.83l2.02-11.67c1.4-6.14,2.3-9.49,2.77-20.11l0.25,0.01    c-0.46,9.23-0.59,12.52-0.95,19.03l-2.43,11.54l2.43,3.46c1.34,1.9,3.56,4.9,4.93,6.66c1.38,1.77,3.55,4.58,4.83,6.25    C208.73,327.07,210.25,327.95,212.33,327.95z"/>
		<path class="st4" d="M215.1,325.6c0.28,1.96-0.57,2.35-2.77,2.35c-2.08,0-3.6-0.88-5.25-3.04c-1.28-1.67-3.45-4.48-4.83-6.25    c-1.37-1.76-3.59-4.76-4.93-6.66l-2.43-3.46l2.43-11.54c0.36-6.51,0.49-9.8,0.95-19.03c0.3-5.93,0.75-14.29,1.48-27.52    c1.69-30.24-0.96-34.23-3.15-43.22c-0.04-0.17-0.08-0.35-0.12-0.53c-0.07-0.35-0.15-0.71-0.24-1.08    c-0.06-0.27-0.12-0.56-0.19-0.84c0-0.01,0-0.02,0-0.03l-0.03-0.09c-0.05-0.25-0.11-0.51-0.17-0.77l-2.05-12.36l3.27-2.58    c1.13-1.61,2.43-4.64,3.67-6.54c0-0.01,0.01-0.01,0.02-0.02c0.35-0.4,0.66-0.78,0.92-1.11c0.28-0.36,0.58-0.76,0.9-1.18    c1.11-1.26,2.29-2.53,3.18-3.69l0.48-1.11c0.03-0.03,0.06-0.07,0.08-0.1l0.64-0.59c1.65-2.16,3.29-1.66,5.37-1.66    c0.9,0,1.57,0.06,2.03,0.28c0.02,0.01,0.04,0.02,0.05,0.03c0.14,0.09,0.27,0.18,0.38,0.27c0.01,0,0.01,0.01,0.02,0.01    c0.64,0.71,0.37,2.23-0.69,5.34c-0.2,0.38-0.42,0.8-0.66,1.24c-2.43,6.89-3.95,33.36-3.95,70.38s1.91,64.63,4.34,71.52    c0.55,1.55,0.97,2.7,1.25,3.56C215.1,325.59,215.1,325.59,215.1,325.6z"/>
		<path class="st4" d="M214.81,173.54c1.1,0.87,1.06,1.92-0.69,5.34C215.18,175.77,215.45,174.25,214.81,173.54z"/>
		<path class="st4" d="M214.79,173.53c-0.11-0.09-0.24-0.18-0.38-0.27C214.56,173.33,214.69,173.42,214.79,173.53z"/>
		<path class="st4" d="M215.1,325.58c-0.28-0.86-0.7-2.01-1.25-3.56c-2.43-6.89-4.34-34.5-4.34-71.52s1.52-63.49,3.95-70.38    c0.24-0.44,0.46-0.86,0.66-1.24c-0.12,0.38-0.26,0.78-0.41,1.2c-2.41,6.82-3.95,34.25-3.95,70.37s1.54,63.55,3.95,70.38    C214.47,322.99,214.95,324.51,215.1,325.58z"/>
		<path class="st4" d="M212.78,172.34c0.62,0.35,1.16,0.63,1.58,0.89c-0.46-0.22-1.13-0.28-2.03-0.28c-2.08,0-3.9-0.72-5.55,1.44    l-0.46,0.81c-0.02,0.03-0.05,0.07-0.08,0.1l0.26-0.6C207.78,173.03,211.93,171.86,212.78,172.34z"/>
		<path class="st4" d="M206.24,175.3l-0.48,1.11c-0.89,1.16-2.07,2.43-3.18,3.69C203.81,178.51,205.23,176.62,206.24,175.3z"/>
		<path class="st4" d="M202.58,180.1c-0.32,0.42-0.62,0.82-0.9,1.18c-0.26,0.33-0.57,0.71-0.92,1.11c0.14-0.24,0.3-0.45,0.45-0.65    C201.63,181.2,202.1,180.65,202.58,180.1z"/>
		<path class="st4" d="M196.6,207.23c2.19,8.99,4.84,12.98,3.15,43.22c-0.73,13.23-1.18,21.59-1.48,27.52l-0.25-0.01    c0.27-6.11,0.4-14.62,0.4-27.46C198.42,219.76,198.14,214.54,196.6,207.23z"/>
		<path class="st4" d="M200.74,182.41c-1.24,1.9-2.54,4.93-3.67,6.54l-3.27,2.58l-0.07-0.05l2.32-3.59    C197.13,186.35,199.24,184.13,200.74,182.41z"/>
		<path class="st4" d="M196.24,205.62c0.09,0.37,0.17,0.73,0.24,1.08C196.4,206.35,196.31,205.99,196.24,205.62z"/>
		<path class="st4" d="M196.05,204.75c0,0.01,0,0.02,0,0.03c-0.01-0.04-0.02-0.08-0.03-0.12L196.05,204.75z"/>
		<path class="st4" d="M196.02,204.66l-3.43-11.42l1.14-1.76l0.07,0.05l2.05,12.36C195.91,204.15,195.97,204.41,196.02,204.66z"/>
	</g>
</g>
	<path class="st7" d="M242.82,45.64C237.96,47.13,232,52.65,232,55.67c0,2.6,3.76,7.9,6.48,9.14c3.29,1.5,3.18,2.59-0.49,5.2  c-5.79,4.12-5.99,5.29-5.99,34.94V132h2.5h2.5v-27.31V77.37l2.75-2.51c1.51-1.38,4.6-3.09,6.86-3.8c4.93-1.54,10.23-0.15,14.64,3.83  l2.75,2.48v27.31V132h2.5h2.5v-27.05c0-29.65-0.2-30.82-5.98-34.94c-3.68-2.62-3.78-3.71-0.49-5.2c2.72-1.24,6.48-6.54,6.48-9.14  c0-3.27-5.94-8.51-11.46-10.11C251.22,43.72,249.06,43.73,242.82,45.64 M243.5,50.86c-5.42,2.47-6.95,4.42-5.54,7.06  c1.7,3.18,6.39,5.07,12.54,5.07c8.8,0,15.57-4.79,12.32-8.72c-1.9-2.3-8.82-5.23-12.32-5.23C248.85,49.04,245.7,49.86,243.5,50.86   M124,130.4c0,1.5,1.23,3.41,3.25,5.07c6.87,5.63,18.35,13.57,20.45,14.13c1.21,0.33,8.18-0.61,15.5-2.08  c11.36-2.28,17.75-2.84,43.8-3.82c16.77-0.63,36.35-1.15,43.5-1.15s26.73,0.52,43.5,1.15c26.05,0.98,32.44,1.54,43.8,3.82  c7.32,1.47,14.29,2.41,15.5,2.08c2.11-0.57,13.58-8.5,20.45-14.13c2.02-1.66,3.25-3.57,3.25-5.07c0-2.69-0.64-2.87-4.68-1.33  c-3.77,1.44-22.95,3.56-43.96,4.86c-22.22,1.38-133.48,1.38-155.7,0c-21.02-1.3-40.2-3.43-43.96-4.86  C124.64,127.53,124,127.71,124,130.4 M248,268.5c0,64.08,0.34,116.5,0.75,116.5s0.75-52.42,0.75-116.5S249.16,152,248.75,152  S248,204.42,248,268.5"/>
	<path class="st8" d="M241,41.77c-4.21,2.04-10.05,6.45-11.07,8.36c-1.71,3.19-0.61,11.1,2.05,14.84l2.3,3.23l-2.64,2.15L229,72.5  l-0.25,29l-0.25,29l-26,0.3c-34.58,0.4-55.63-1.15-72.74-5.38c-8.66-2.14-8.76-2.1-8.76,3.26c0,4.43,1.73,11.23,3.13,12.32  c0.35,0.27,1.31,2.07,2.13,4s3.84,6.2,6.72,9.5c9.08,10.4,27.29,28.5,28.68,28.5c1.03,0,1.34-2.39,1.34-10.42  c0-9.79,0.16-10.61,2.63-13.54c1.44-1.72,4.48-4.1,6.75-5.29c3.87-2.03,5.8-2.19,30.87-2.56l26.75-0.4v46.11V243h-9.66h-9.66  l0.65-24.75c0.43-16.55,1.16-27.07,2.21-31.75c0.86-3.85,1.82-8.69,2.14-10.75l0.58-3.75h-4.56c-2.98,0-5.84,0.78-8.24,2.25  c-4.11,2.52-20.32,16.82-27.93,24.65l-4.96,5.1h7.78c9.07,0,10.68,0.68,14.68,6.2l2.97,4.1v36.2v36.2l-2.97,4.1  c-4,5.52-5.61,6.2-14.68,6.2h-7.78l4.96,5.1c7.61,7.83,23.82,22.13,27.93,24.65c2.4,1.47,5.26,2.25,8.24,2.25h4.56l-0.58-3.75  c-0.32-2.06-1.29-6.9-2.14-10.75c-1.04-4.68-1.77-15.2-2.21-31.75L210.68,258h9.66H230v64.27v64.27l9.18,12.98  c5.05,7.14,9.62,13.28,10.16,13.64c2,1.34,3.99-0.7,12.73-13.02l8.94-12.6v-64.77V258h9.66h9.66l-0.65,24.75  c-0.43,16.55-1.16,27.07-2.21,31.75c-0.86,3.85-1.82,8.69-2.14,10.75l-0.58,3.75h4.56c2.98,0,5.84-0.78,8.23-2.25  c4.11-2.52,20.32-16.82,27.93-24.65l4.96-5.1h-7.78c-9.07,0-10.68-0.68-14.68-6.2l-2.97-4.1v-36.2v-36.2l2.97-4.1  c4-5.52,5.61-6.2,14.68-6.2h7.78l-4.96-5.1c-7.61-7.82-23.82-22.13-27.93-24.65c-2.4-1.47-5.26-2.25-8.23-2.25h-4.56l0.58,3.75  c0.32,2.06,1.29,6.9,2.14,10.75c1.04,4.68,1.77,15.2,2.21,31.75l0.65,24.75h-9.66H271v-46.11v-46.11l26.75,0.4  c25.08,0.37,27.01,0.53,30.87,2.56c2.27,1.19,5.31,3.57,6.75,5.29c2.47,2.93,2.63,3.75,2.63,13.54c0,8.04,0.31,10.42,1.34,10.42  c1.39,0,19.6-18.1,28.68-28.5c2.88-3.3,5.9-7.57,6.72-9.5s1.77-3.73,2.13-4c1.4-1.09,3.13-7.9,3.13-12.32c0-5.36-0.1-5.4-8.77-3.26  c-17.1,4.23-38.15,5.79-72.73,5.38l-26-0.3l-0.25-29l-0.25-29l-2.64-2.15l-2.64-2.15l2.3-3.23c2.63-3.7,3.76-11.64,2.1-14.75  c-0.61-1.14-3.25-3.56-5.86-5.37c-4.41-3.06-5.4-3.31-13.75-3.55C246.55,41.16,241.82,41.37,241,41.77 M241.84,45.38  c-5.49,1.68-10.25,6.42-10.25,10.33c0,3.32,3.34,8.53,5.87,9.34c2.52,0.8,2.96,2.84,0.38,4.23c-1.13,0.6-3.28,2.47-4.35,4.23  c-1.8,2.96-1.94,5.14-1.94,31.35l0.08,27.51h3.04l2.7,0.04l0.04-26.66l0.04-28.06l2.7-2.45c1.38-1.3,4.36-2.97,6.42-3.68  c4.5-1.55,10.27,0.08,14.54,3.93l2.54,2.37l-0.13,27.85l0.04,26.66l2.96,0.13l3.16-0.13l-0.29-27.53  c-0.29-18.1-0.64-24.79-0.33-28.18c0.12-1.35-1.33-1.26-1.43-3.08c-1.4-1.55-5.38-4.08-5.04-5.18c-2.58-1.38-1.48-2.56,1.04-3.36  c2.53-0.8,5.79-6.03,5.79-9.35c0-4.18-5.15-8.57-11.31-10.36c-6.39-1.86-10.09-1.84-16.37,0.09 M243.71,51.43  c-2.45,1.24-5.31,3.68-5.48,4.63c-0.5,2.73,6.42,6.5,12.27,6.5c5.86,0,12.76-3.01,12.25-5.74c0.57-2.93-8.71-8-12.55-7.29  c-1.12,0.21-4.04,0.89-6.5,2.12 M244.75,53.57c-5.24,2.84-2.03,6.43,5.75,6.43c7.9,0,11.02-3.65,5.55-6.47  C252.36,51.62,248.32,51.64,244.75,53.57 M243.59,77.11c-1.47,1.16-2.53,2.55-2.35,3.09c0.18,0.55,4.31,0.98,9.27,0.98  s9.08-0.44,9.27-0.98c0.68-2.03-4.97-5.2-9.27-5.2C247.71,75,245.36,75.72,243.59,77.11 M241.4,86.39  c-0.31,0.81-0.41,2.44-0.23,3.64c0.31,2.04,0.86,2.17,9.33,2.16l9-0.01v-3.34V85.5l-8.77-0.29  C243.76,84.98,241.85,85.22,241.4,86.39 M241.4,97.4c-0.31,0.82-0.42,2.22-0.23,3.13c0.28,1.39,1.77,1.65,9.34,1.65h9v-2.84V96.5  l-8.77-0.29C243.73,95.98,241.85,96.22,241.4,97.4 M241.19,110.1l0.31,3.1h9h9l0.31-3.1l0.31-3.1h-9.63h-9.63L241.19,110.1   M241.4,118.39c-0.31,0.81-0.41,2.46-0.23,3.68c0.31,2.1,0.8,2.21,9.33,2.21h9v-3.39v-3.39l-8.77-0.29  C243.76,116.98,241.85,117.22,241.4,118.39 M123.46,130.28c0,3.77,0.83,4.22,13.94,13.73c4.13,2.99,8.33,5.75,9.59,6.08  c1.27,0.34,8.78-0.64,16.86-2.15c12.49-2.34,19.04-2.89,44.54-3.8c37.39-1.77,46.64-1.5,84.02,0.3c25.57,0.07,32.51,1.03,44.98,3.63  c8.08,1.52,15.23,2.47,16.5,2.13c1.26-0.34,5.55-2.99,9.68-5.98c12.38-9.86,13.93-10.03,13.86-13.69c-0.08-3.69-1.61-3.55-6.58-1.62  c-3.76,1.66-22.73,3.33-43.76,4.25c-22.02,2.22-131.11,1.67-153.38,0.04c-21.33-0.76-40-2.82-43.69-4.39  C124.84,126.83,123.46,126.51,123.46,130.28 M241,130c0,1.86,0.67,2,9.5,2c8.83,0,9.5-0.14,9.5-2s-0.67-2-9.5-2  C241.67,128,241,128.14,241,130 M248,268.5V385h2.5h2.5V268.5V152h-2.5H248V268.5 M206.83,176.04c-1.28,1.67-3.45,4.48-4.83,6.25  s-3.59,4.77-4.93,6.67l-2.43,3.45l2.43,11.55c2.31,10.96,2.43,13.31,2.43,46.55s-0.12,35.58-2.43,46.55l-2.43,11.55l2.43,3.45  c1.34,1.9,3.56,4.9,4.93,6.67c1.38,1.77,3.55,4.58,4.83,6.25c1.65,2.16,3.17,3.04,5.25,3.04c3.39,0,3.57-0.92,1.38-7.12  c-2.41-6.83-3.95-34.25-3.95-70.38s1.54-63.55,3.95-70.38c2.19-6.2,2.01-7.12-1.38-7.12C210,173,208.48,173.88,206.83,176.04   M286,174.37c0,0.76,0.7,3.34,1.54,5.75c2.41,6.83,3.95,34.25,3.95,70.38s-1.54,63.55-3.95,70.38c-2.19,6.2-2.01,7.12,1.38,7.12  c2.08,0,3.6-0.88,5.25-3.04c1.28-1.67,3.45-4.48,4.83-6.25c1.38-1.77,3.59-4.77,4.93-6.67l2.43-3.45l-2.43-11.55  c-2.29-10.89-2.43-13.43-2.43-44.55c0-34.47,0.19-37.6,3.09-51.54l1.78-8.54l-2.43-3.46c-1.34-1.9-3.56-4.9-4.93-6.67  c-1.38-1.77-3.55-4.58-4.83-6.25c-1.65-2.16-3.17-3.04-5.25-3.04C287.11,173,286,173.52,286,174.37 M210,249.5v4.5h10h10v-4.5V245  h-10h-10V249.5 M271,249.5v4.5h10h10v-4.5V245h-10h-10V249.5"/>
	<path class="st4" d="M207.53,175.43"/>
	<path class="st4" d="M319.73,235.71"/>
</svg>
